# xmcd CD database file
#
# Track frame offsets:
#	150
#	6692
#	19705
#	30352
#	43380
#	54522
#	68370
#	81512
#	90522
#	104347
#	118365
#	130745
#	141397
#	153847
#	168007
#	181165
#
# Disc length: 2548 seconds
#
# Revision: 0
# Processed by: cddbd v1.5.2PL0 Copyright (c) Steve Scherf et al.
# Submitted via: CDex 1.51
#
DISCID=cf09f210
DTITLE=Dick Jurgens and His Orchestra - The Uncollected Dick Jurgens and His Orchestra 1937-1939
DYEAR=1940
DGENRE=Jazz
TTITLE0=Daydreams Come True At Night
TTITLE1=Whispers In The Dark
TTITLE2=Me, Myself And I
TTITLE3=Gone With The Wind
TTITLE4=There's A Brand New Picture In My Picture Frame
TTITLE5=This May Be The Night
TTITLE6=Sailboat In The Moonlight
TTITLE7=Swamp Fire
TTITLE8=I've Got A Pocketful Of Dreams
TTITLE9=Don't Let That Moon Get Away
TTITLE10=Stop, You're Breaking My Heart
TTITLE11=Will You Remember Tonight Tomorrow
TTITLE12=In A Sentimental Mood
TTITLE13=Merry-Go-Round Broke Down
TTITLE14=Harbor Lights
TTITLE15=King Porter Stomp
EXTD=YEAR: 1940
EXTT0=
EXTT1=
EXTT2=
EXTT3=
EXTT4=
EXTT5=
EXTT6=
EXTT7=
EXTT8=
EXTT9=
EXTT10=
EXTT11=
EXTT12=
EXTT13=
EXTT14=
EXTT15=
PLAYORDER=
